<svg width="234" height="56" viewBox="0 0 234 56" fill="none" xmlns="http://www.w3.org/2000/svg">
<path d="M31.9441 27.7772C31.9447 26.3381 31.9375 24.9411 31.9513 23.5501C31.9561 23.0865 31.7948 22.7673 31.3853 22.5325C29.0911 21.2198 26.8029 19.8951 24.5148 18.5763C24.3883 18.5041 24.2498 18.4499 24.0993 18.3837C23.9126 18.6245 23.9849 18.8774 23.9849 19.1123C23.9788 30.9084 23.9849 42.7045 23.9849 54.5067C23.9849 54.6572 23.9909 54.8077 23.9849 54.9523C23.9307 55.8495 23.184 56.2649 22.4012 55.8194C21.2872 55.1871 20.1913 54.5247 19.0894 53.8744C15.5307 51.7669 11.972 49.6413 8.40121 47.5579C7.78099 47.1966 7.52809 46.769 7.53411 46.0465C7.55217 34.2684 7.54615 22.4843 7.54615 10.7062C7.54615 10.4895 7.53411 10.2667 7.58228 10.0619C7.74486 9.42366 8.44336 9.18882 9.11776 9.56215C10.3642 10.2606 11.5986 10.9832 12.8391 11.6938C16.2412 13.6447 19.6434 15.6017 23.0455 17.5527C23.2563 17.6731 23.455 17.8357 23.7139 17.8779C23.9066 17.6972 23.8223 17.4684 23.8223 17.2637C23.8283 11.9467 23.8283 6.62366 23.8283 1.30667C23.8283 0.951398 23.8403 0.608172 24.0932 0.325161C24.4244 -0.0481723 24.8821 -0.108387 25.412 0.192688C27.0498 1.13806 28.6455 2.05935 30.2472 2.98064C35.9014 6.22624 41.5375 9.48989 47.2098 12.6933C48.1552 13.2292 48.5225 13.8495 48.5104 14.9394C48.4563 20.3226 48.4743 25.7118 48.4984 31.0951C48.5044 31.92 48.2214 32.4318 47.4868 32.8473C42.9044 35.4426 38.3401 38.086 33.7698 40.7054C32.7281 41.3015 32.0055 40.8981 31.9935 39.6938C31.9694 37.5381 31.9814 35.3884 31.9814 33.2327C31.9814 31.4443 31.9874 29.6559 31.9874 27.8133L31.9441 27.7772Z" fill="black"/>
<path d="M233.642 24.44H228.802V33.92C228.802 34.88 229.069 35.6267 229.602 36.16C230.135 36.6933 230.829 36.96 231.682 36.96C232.295 36.96 232.949 36.8667 233.642 36.68V41.04C232.869 41.2267 232.015 41.32 231.082 41.32C228.842 41.32 227.055 40.7333 225.722 39.56C224.415 38.3867 223.762 36.68 223.762 34.44V24.44H220.242V20.24H223.762V14.12H228.802V20.24H233.642V24.44Z" fill="black"/>
<path d="M198.997 20.24H204.037V23.44C204.73 22.3467 205.65 21.4933 206.797 20.88C207.97 20.24 209.264 19.92 210.677 19.92C212.144 19.92 213.45 20.2267 214.597 20.84C215.744 21.4533 216.624 22.3333 217.237 23.48C217.877 24.6 218.197 25.9067 218.197 27.4V41H213.197V28.56C213.197 27.3333 212.824 26.3333 212.077 25.56C211.357 24.7867 210.397 24.4 209.197 24.4C208.104 24.4 207.17 24.6933 206.397 25.28C205.624 25.8667 205.037 26.72 204.637 27.84C204.237 28.96 204.037 30.3067 204.037 31.88V41H198.997V20.24Z" fill="black"/>
<path d="M189.583 20.24H194.623V41H189.583V20.24ZM194.863 11.84V17.12H189.383V11.84H194.863Z" fill="black"/>
<path d="M152.405 12.16H159.125L167.165 30.8C167.885 32.4267 168.405 33.8533 168.725 35.08C169.045 33.8533 169.565 32.4267 170.285 30.8L178.365 12.16H184.805V41H179.485V25.6C179.485 23.84 179.525 22.3067 179.605 21C179.178 22.2267 178.618 23.6533 177.925 25.28L171.205 41H166.085L159.285 25.28C158.565 23.6533 158.005 22.2267 157.605 21C157.685 22.28 157.725 23.8133 157.725 25.6V41H152.405V12.16Z" fill="black"/>
<path d="M140.468 41.32C138.708 41.32 137.148 41.0133 135.788 40.4C134.428 39.76 133.348 38.8667 132.548 37.72C131.774 36.5733 131.361 35.2667 131.308 33.8H136.228C136.281 34.6267 136.708 35.3733 137.508 36.04C138.308 36.7067 139.294 37.04 140.468 37.04C141.481 37.04 142.294 36.84 142.908 36.44C143.548 36.04 143.868 35.52 143.868 34.88C143.868 34.3467 143.668 33.92 143.268 33.6C142.894 33.2533 142.348 33.0133 141.628 32.88L138.388 32.2C136.548 31.8 135.068 31.12 133.948 30.16C132.828 29.1733 132.268 27.7467 132.268 25.88C132.268 24.7867 132.588 23.7867 133.228 22.88C133.868 21.9733 134.774 21.2533 135.948 20.72C137.121 20.1867 138.481 19.92 140.028 19.92C141.548 19.92 142.921 20.1867 144.148 20.72C145.374 21.2533 146.374 22.0133 147.148 23C147.948 23.9867 148.428 25.16 148.588 26.52H143.668C143.561 25.72 143.148 25.0933 142.428 24.64C141.734 24.1867 140.934 23.96 140.028 23.96C139.201 23.96 138.534 24.1333 138.028 24.48C137.521 24.8267 137.268 25.2933 137.268 25.88C137.268 26.36 137.454 26.76 137.828 27.08C138.228 27.4 138.788 27.6267 139.508 27.76L142.748 28.44C144.748 28.84 146.281 29.5067 147.348 30.44C148.441 31.3733 148.988 32.8133 148.988 34.76C148.988 35.96 148.628 37.0667 147.908 38.08C147.188 39.0667 146.174 39.8533 144.868 40.44C143.588 41.0267 142.121 41.32 140.468 41.32Z" fill="black"/>
<path d="M120.898 41.32C119.138 41.32 117.578 41.0133 116.218 40.4C114.858 39.76 113.778 38.8667 112.978 37.72C112.204 36.5733 111.791 35.2667 111.738 33.8H116.658C116.711 34.6267 117.138 35.3733 117.938 36.04C118.738 36.7067 119.724 37.04 120.898 37.04C121.911 37.04 122.724 36.84 123.338 36.44C123.978 36.04 124.298 35.52 124.298 34.88C124.298 34.3467 124.098 33.92 123.698 33.6C123.324 33.2533 122.778 33.0133 122.058 32.88L118.818 32.2C116.978 31.8 115.498 31.12 114.378 30.16C113.258 29.1733 112.698 27.7467 112.698 25.88C112.698 24.7867 113.018 23.7867 113.658 22.88C114.298 21.9733 115.204 21.2533 116.378 20.72C117.551 20.1867 118.911 19.92 120.458 19.92C121.978 19.92 123.351 20.1867 124.578 20.72C125.804 21.2533 126.804 22.0133 127.578 23C128.378 23.9867 128.858 25.16 129.018 26.52H124.098C123.991 25.72 123.578 25.0933 122.858 24.64C122.164 24.1867 121.364 23.96 120.458 23.96C119.631 23.96 118.964 24.1333 118.458 24.48C117.951 24.8267 117.698 25.2933 117.698 25.88C117.698 26.36 117.884 26.76 118.258 27.08C118.658 27.4 119.218 27.6267 119.938 27.76L123.178 28.44C125.178 28.84 126.711 29.5067 127.778 30.44C128.871 31.3733 129.418 32.8133 129.418 34.76C129.418 35.96 129.058 37.0667 128.338 38.08C127.618 39.0667 126.604 39.8533 125.298 40.44C124.018 41.0267 122.551 41.32 120.898 41.32Z" fill="black"/>
<path d="M97.6569 41.32C96.2702 41.32 95.0302 41.0667 93.9369 40.56C92.8435 40.0533 91.9769 39.3467 91.3369 38.44C90.7235 37.5067 90.4169 36.4667 90.4169 35.32C90.4169 33.5067 91.0435 32.0533 92.2969 30.96C93.5502 29.84 95.3369 29.1333 97.6569 28.84L101.817 28.28C102.35 28.2 102.764 28.0267 103.057 27.76C103.35 27.4667 103.497 27.0933 103.497 26.64C103.497 25.84 103.137 25.1733 102.417 24.64C101.697 24.1067 100.75 23.84 99.5769 23.84C98.4035 23.84 97.4302 24.1333 96.6569 24.72C95.9102 25.3067 95.4969 26.12 95.4169 27.16H90.5369C90.6969 25.6933 91.1635 24.4133 91.9369 23.32C92.7102 22.2267 93.7369 21.3867 95.0169 20.8C96.3235 20.2133 97.8435 19.92 99.5769 19.92C101.39 19.92 102.964 20.2533 104.297 20.92C105.657 21.56 106.697 22.4933 107.417 23.72C108.164 24.92 108.537 26.3333 108.537 27.96V35.28C108.537 35.84 108.63 36.2667 108.817 36.56C109.03 36.8267 109.364 36.96 109.817 36.96C110.057 36.9333 110.284 36.9067 110.497 36.88V41C109.67 41.16 108.87 41.24 108.097 41.24C107.004 41.24 106.097 40.9867 105.377 40.48C104.684 39.9733 104.27 39.24 104.137 38.28C103.684 39.2133 102.87 39.96 101.697 40.52C100.55 41.0533 99.2035 41.32 97.6569 41.32ZM98.4969 37.48C100.097 37.48 101.35 36.9733 102.257 35.96C103.164 34.9467 103.617 33.64 103.617 32.04V31.44L98.4969 32.28C97.4835 32.44 96.7235 32.76 96.2169 33.24C95.7102 33.6933 95.4569 34.3067 95.4569 35.08C95.4569 35.8 95.7369 36.3867 96.2969 36.84C96.8569 37.2667 97.5902 37.48 98.4969 37.48Z" fill="black"/>
<path d="M67.6 12.16H80C81.8933 12.16 83.5333 12.5333 84.92 13.28C86.3067 14 87.3733 15.04 88.12 16.4C88.8933 17.7333 89.28 19.28 89.28 21.04C89.28 22.72 88.8933 24.24 88.12 25.6C87.3733 26.9333 86.2933 27.9867 84.88 28.76C83.4933 29.5333 81.8667 29.92 80 29.92H72.96V41H67.6V12.16ZM79.2 25.2C80.64 25.2 81.7733 24.8267 82.6 24.08C83.4267 23.3067 83.84 22.2933 83.84 21.04C83.84 19.7867 83.4267 18.7867 82.6 18.04C81.7733 17.2667 80.64 16.88 79.2 16.88H72.96V25.2H79.2Z" fill="black"/>
</svg>
